<mxfile host="Electron" agent="Mozilla/5.0 (Macintosh; Intel Mac OS X 10_15_7) AppleWebKit/537.36 (KHTML, like Gecko) draw.io/26.0.9 Chrome/128.0.6613.186 Electron/32.2.5 Safari/537.36" version="26.0.9">
  <diagram id="R2lEEEUBdFMjLlhIrx00" name="Page-1">
    <mxGraphModel dx="707" dy="564" grid="1" gridSize="10" guides="1" tooltips="1" connect="1" arrows="1" fold="1" page="1" pageScale="1" pageWidth="850" pageHeight="1100" math="0" shadow="0" extFonts="Permanent Marker^https://fonts.googleapis.com/css?family=Permanent+Marker">
      <root>
        <mxCell id="0" />
        <mxCell id="1" parent="0" />
        <mxCell id="ixhL3a_HBpsVwDCtuYo2-10" value="bookID" style="ellipse;whiteSpace=wrap;html=1;align=center;fontStyle=4;fillColor=#FFEAEB;" parent="1" vertex="1">
          <mxGeometry y="210" width="100" height="40" as="geometry" />
        </mxCell>
        <mxCell id="ixhL3a_HBpsVwDCtuYo2-11" value="title" style="ellipse;whiteSpace=wrap;html=1;align=center;fillColor=#FFEAEB;" parent="1" vertex="1">
          <mxGeometry x="130" y="210" width="100" height="40" as="geometry" />
        </mxCell>
        <mxCell id="ixhL3a_HBpsVwDCtuYo2-12" value="author" style="ellipse;whiteSpace=wrap;html=1;align=center;fillColor=#FFEAEB;" parent="1" vertex="1">
          <mxGeometry x="260" y="210" width="100" height="40" as="geometry" />
        </mxCell>
        <mxCell id="ixhL3a_HBpsVwDCtuYo2-13" value="Book" style="whiteSpace=wrap;html=1;align=center;fillColor=#E8E8FF;" parent="1" vertex="1">
          <mxGeometry x="130" y="280" width="100" height="40" as="geometry" />
        </mxCell>
        <mxCell id="ixhL3a_HBpsVwDCtuYo2-15" value="" style="endArrow=none;html=1;rounded=0;" parent="1" source="ixhL3a_HBpsVwDCtuYo2-13" target="ixhL3a_HBpsVwDCtuYo2-10" edge="1">
          <mxGeometry relative="1" as="geometry">
            <mxPoint x="340" y="330" as="sourcePoint" />
            <mxPoint x="500" y="330" as="targetPoint" />
          </mxGeometry>
        </mxCell>
        <mxCell id="ixhL3a_HBpsVwDCtuYo2-16" value="" style="endArrow=none;html=1;rounded=0;" parent="1" source="ixhL3a_HBpsVwDCtuYo2-13" target="ixhL3a_HBpsVwDCtuYo2-11" edge="1">
          <mxGeometry relative="1" as="geometry">
            <mxPoint x="190" y="300" as="sourcePoint" />
            <mxPoint x="110" y="208" as="targetPoint" />
          </mxGeometry>
        </mxCell>
        <mxCell id="ixhL3a_HBpsVwDCtuYo2-17" value="" style="endArrow=none;html=1;rounded=0;" parent="1" source="ixhL3a_HBpsVwDCtuYo2-13" target="ixhL3a_HBpsVwDCtuYo2-12" edge="1">
          <mxGeometry relative="1" as="geometry">
            <mxPoint x="190" y="290" as="sourcePoint" />
            <mxPoint x="190" y="210" as="targetPoint" />
          </mxGeometry>
        </mxCell>
        <mxCell id="ixhL3a_HBpsVwDCtuYo2-18" value="Loan" style="whiteSpace=wrap;html=1;align=center;fillColor=#E8E8FF;" parent="1" vertex="1">
          <mxGeometry x="130" y="460" width="100" height="40" as="geometry" />
        </mxCell>
        <mxCell id="ixhL3a_HBpsVwDCtuYo2-19" value="lends" style="shape=rhombus;perimeter=rhombusPerimeter;whiteSpace=wrap;html=1;align=center;fillColor=#F3FFED;" parent="1" vertex="1">
          <mxGeometry x="145" y="370" width="70" height="40" as="geometry" />
        </mxCell>
        <mxCell id="ixhL3a_HBpsVwDCtuYo2-22" value="loanID" style="ellipse;whiteSpace=wrap;html=1;align=center;fontStyle=4;fillColor=#FFEAEB;" parent="1" vertex="1">
          <mxGeometry x="270" y="410" width="100" height="40" as="geometry" />
        </mxCell>
        <mxCell id="ixhL3a_HBpsVwDCtuYo2-23" value="loanDate" style="ellipse;whiteSpace=wrap;html=1;align=center;fillColor=#FFEAEB;" parent="1" vertex="1">
          <mxGeometry x="270" y="460" width="100" height="40" as="geometry" />
        </mxCell>
        <mxCell id="ixhL3a_HBpsVwDCtuYo2-24" value="returnDate" style="ellipse;whiteSpace=wrap;html=1;align=center;fillColor=#FFEAEB;" parent="1" vertex="1">
          <mxGeometry x="270" y="510" width="100" height="40" as="geometry" />
        </mxCell>
        <mxCell id="ixhL3a_HBpsVwDCtuYo2-25" value="" style="endArrow=none;html=1;rounded=0;" parent="1" source="ixhL3a_HBpsVwDCtuYo2-18" target="ixhL3a_HBpsVwDCtuYo2-22" edge="1">
          <mxGeometry relative="1" as="geometry">
            <mxPoint x="441.5" y="270" as="sourcePoint" />
            <mxPoint x="378.5" y="236" as="targetPoint" />
          </mxGeometry>
        </mxCell>
        <mxCell id="ixhL3a_HBpsVwDCtuYo2-26" value="" style="endArrow=none;html=1;rounded=0;" parent="1" source="ixhL3a_HBpsVwDCtuYo2-18" target="ixhL3a_HBpsVwDCtuYo2-23" edge="1">
          <mxGeometry relative="1" as="geometry">
            <mxPoint x="525" y="291" as="sourcePoint" />
            <mxPoint x="480" y="240" as="targetPoint" />
          </mxGeometry>
        </mxCell>
        <mxCell id="ixhL3a_HBpsVwDCtuYo2-27" value="" style="endArrow=none;html=1;rounded=0;" parent="1" source="ixhL3a_HBpsVwDCtuYo2-18" target="ixhL3a_HBpsVwDCtuYo2-24" edge="1">
          <mxGeometry relative="1" as="geometry">
            <mxPoint x="509" y="290" as="sourcePoint" />
            <mxPoint x="531" y="240" as="targetPoint" />
          </mxGeometry>
        </mxCell>
        <mxCell id="ixhL3a_HBpsVwDCtuYo2-29" value="Member" style="whiteSpace=wrap;html=1;align=center;fillColor=#E8E8FF;" parent="1" vertex="1">
          <mxGeometry x="130" y="650" width="100" height="40" as="geometry" />
        </mxCell>
        <mxCell id="ixhL3a_HBpsVwDCtuYo2-30" value="memberID" style="ellipse;whiteSpace=wrap;html=1;align=center;fontStyle=4;fillColor=#FFEAEB;" parent="1" vertex="1">
          <mxGeometry y="650" width="100" height="40" as="geometry" />
        </mxCell>
        <mxCell id="ixhL3a_HBpsVwDCtuYo2-31" value="name" style="ellipse;whiteSpace=wrap;html=1;align=center;fillColor=#FFEAEB;" parent="1" vertex="1">
          <mxGeometry x="130" y="710" width="100" height="40" as="geometry" />
        </mxCell>
        <mxCell id="ixhL3a_HBpsVwDCtuYo2-33" value="" style="endArrow=none;html=1;rounded=0;" parent="1" source="ixhL3a_HBpsVwDCtuYo2-29" target="ixhL3a_HBpsVwDCtuYo2-30" edge="1">
          <mxGeometry relative="1" as="geometry">
            <mxPoint x="711.5" y="270" as="sourcePoint" />
            <mxPoint x="648.5" y="236" as="targetPoint" />
          </mxGeometry>
        </mxCell>
        <mxCell id="ixhL3a_HBpsVwDCtuYo2-34" value="" style="endArrow=none;html=1;rounded=0;" parent="1" source="ixhL3a_HBpsVwDCtuYo2-29" target="ixhL3a_HBpsVwDCtuYo2-31" edge="1">
          <mxGeometry relative="1" as="geometry">
            <mxPoint x="795" y="291" as="sourcePoint" />
            <mxPoint x="750" y="240" as="targetPoint" />
          </mxGeometry>
        </mxCell>
        <mxCell id="ixhL3a_HBpsVwDCtuYo2-36" value="toMember" style="shape=rhombus;perimeter=rhombusPerimeter;whiteSpace=wrap;html=1;align=center;fillColor=#F3FFED;" parent="1" vertex="1">
          <mxGeometry x="130" y="550" width="100" height="50" as="geometry" />
        </mxCell>
        <mxCell id="ixhL3a_HBpsVwDCtuYo2-41" value="membershipDate" style="ellipse;whiteSpace=wrap;html=1;align=center;fillColor=#FFEAEB;" parent="1" vertex="1">
          <mxGeometry x="260" y="650" width="110" height="40" as="geometry" />
        </mxCell>
        <mxCell id="ixhL3a_HBpsVwDCtuYo2-42" value="" style="endArrow=none;html=1;rounded=0;" parent="1" source="ixhL3a_HBpsVwDCtuYo2-29" target="ixhL3a_HBpsVwDCtuYo2-41" edge="1">
          <mxGeometry relative="1" as="geometry">
            <mxPoint x="740" y="360" as="sourcePoint" />
            <mxPoint x="823" y="323" as="targetPoint" />
          </mxGeometry>
        </mxCell>
        <mxCell id="ixhL3a_HBpsVwDCtuYo2-46" value="" style="endArrow=none;html=1;rounded=0;" parent="1" source="ixhL3a_HBpsVwDCtuYo2-19" target="ixhL3a_HBpsVwDCtuYo2-13" edge="1">
          <mxGeometry relative="1" as="geometry">
            <mxPoint x="265" y="290" as="sourcePoint" />
            <mxPoint x="425" y="290" as="targetPoint" />
          </mxGeometry>
        </mxCell>
        <mxCell id="ixhL3a_HBpsVwDCtuYo2-47" value="1" style="resizable=0;html=1;whiteSpace=wrap;align=right;verticalAlign=bottom;" parent="ixhL3a_HBpsVwDCtuYo2-46" connectable="0" vertex="1">
          <mxGeometry x="1" relative="1" as="geometry">
            <mxPoint y="21" as="offset" />
          </mxGeometry>
        </mxCell>
        <mxCell id="ixhL3a_HBpsVwDCtuYo2-50" value="" style="endArrow=none;html=1;rounded=0;" parent="1" source="ixhL3a_HBpsVwDCtuYo2-36" target="ixhL3a_HBpsVwDCtuYo2-29" edge="1">
          <mxGeometry relative="1" as="geometry">
            <mxPoint x="450" y="510" as="sourcePoint" />
            <mxPoint x="450" y="460" as="targetPoint" />
          </mxGeometry>
        </mxCell>
        <mxCell id="ixhL3a_HBpsVwDCtuYo2-51" value="1" style="resizable=0;html=1;whiteSpace=wrap;align=right;verticalAlign=bottom;" parent="ixhL3a_HBpsVwDCtuYo2-50" connectable="0" vertex="1">
          <mxGeometry x="1" relative="1" as="geometry">
            <mxPoint y="-5" as="offset" />
          </mxGeometry>
        </mxCell>
        <mxCell id="ixhL3a_HBpsVwDCtuYo2-56" value="" style="shape=link;html=1;rounded=0;" parent="1" source="ixhL3a_HBpsVwDCtuYo2-36" target="ixhL3a_HBpsVwDCtuYo2-18" edge="1">
          <mxGeometry relative="1" as="geometry">
            <mxPoint x="270" y="644.5" as="sourcePoint" />
            <mxPoint x="430" y="644.5" as="targetPoint" />
          </mxGeometry>
        </mxCell>
        <mxCell id="ixhL3a_HBpsVwDCtuYo2-57" value="M" style="resizable=0;html=1;whiteSpace=wrap;align=right;verticalAlign=bottom;" parent="ixhL3a_HBpsVwDCtuYo2-56" connectable="0" vertex="1">
          <mxGeometry x="1" relative="1" as="geometry">
            <mxPoint x="-3" y="20" as="offset" />
          </mxGeometry>
        </mxCell>
        <mxCell id="ixhL3a_HBpsVwDCtuYo2-59" value="" style="shape=link;html=1;rounded=0;" parent="1" source="ixhL3a_HBpsVwDCtuYo2-19" target="ixhL3a_HBpsVwDCtuYo2-18" edge="1">
          <mxGeometry relative="1" as="geometry">
            <mxPoint x="190" y="560" as="sourcePoint" />
            <mxPoint x="180" y="480" as="targetPoint" />
          </mxGeometry>
        </mxCell>
        <mxCell id="ixhL3a_HBpsVwDCtuYo2-60" value="M" style="resizable=0;html=1;whiteSpace=wrap;align=right;verticalAlign=bottom;" parent="ixhL3a_HBpsVwDCtuYo2-59" connectable="0" vertex="1">
          <mxGeometry x="1" relative="1" as="geometry">
            <mxPoint x="-3" as="offset" />
          </mxGeometry>
        </mxCell>
        <mxCell id="MKp-BSAFVUHCRbje4Yaj-1" value="first" style="ellipse;whiteSpace=wrap;html=1;align=center;fillColor=#F4F9FF;" parent="1" vertex="1">
          <mxGeometry x="30" y="740" width="100" height="40" as="geometry" />
        </mxCell>
        <mxCell id="MKp-BSAFVUHCRbje4Yaj-2" value="last" style="ellipse;whiteSpace=wrap;html=1;align=center;fillColor=#F4F9FF;" parent="1" vertex="1">
          <mxGeometry x="240" y="740" width="100" height="40" as="geometry" />
        </mxCell>
        <mxCell id="MKp-BSAFVUHCRbje4Yaj-3" value="" style="endArrow=none;html=1;rounded=0;" parent="1" source="ixhL3a_HBpsVwDCtuYo2-31" target="MKp-BSAFVUHCRbje4Yaj-1" edge="1">
          <mxGeometry relative="1" as="geometry">
            <mxPoint x="147" y="660" as="sourcePoint" />
            <mxPoint x="93" y="635" as="targetPoint" />
          </mxGeometry>
        </mxCell>
        <mxCell id="MKp-BSAFVUHCRbje4Yaj-4" value="" style="endArrow=none;html=1;rounded=0;" parent="1" source="ixhL3a_HBpsVwDCtuYo2-31" target="MKp-BSAFVUHCRbje4Yaj-2" edge="1">
          <mxGeometry relative="1" as="geometry">
            <mxPoint x="28" y="669" as="sourcePoint" />
            <mxPoint x="1" y="661" as="targetPoint" />
          </mxGeometry>
        </mxCell>
      </root>
    </mxGraphModel>
  </diagram>
</mxfile>
